<svg width="445" height="132" viewBox="0 0 445 132" fill="none" xmlns="http://www.w3.org/2000/svg">
<path d="M428.519 131.852H16.4815C7.25185 131.852 0 124.6 0 115.37V16.4815C0 7.25185 7.25185 0 16.4815 0H428.519C437.748 0 445 7.25185 445 16.4815V115.37C445 124.6 437.748 131.852 428.519 131.852Z" fill="black"/>
<path d="M428.519 2.63704C436.1 2.63704 442.363 8.9 442.363 16.4815V115.37C442.363 122.952 436.1 129.215 428.519 129.215H16.4815C8.9 129.215 2.63704 122.952 2.63704 115.37V16.4815C2.63704 8.9 8.9 2.63704 16.4815 2.63704H428.519ZM428.519 0H16.4815C7.25185 0 0 7.58148 0 16.4815V115.37C0 124.6 7.25185 131.852 16.4815 131.852H428.519C437.748 131.852 445 124.6 445 115.37V16.4815C445 7.58148 437.748 0 428.519 0Z" fill="#A6A6A6"/>
<path d="M156.245 33.6221C156.245 36.2591 155.585 38.5665 153.937 40.2147C151.959 42.1925 149.652 43.1814 146.685 43.1814C143.719 43.1814 141.411 42.1925 139.433 40.2147C137.456 38.2369 136.467 35.9295 136.467 32.9628C136.467 29.9962 137.456 27.6888 139.433 25.711C141.411 23.7332 143.719 22.7443 146.685 22.7443C148.004 22.7443 149.322 23.074 150.641 23.7332C151.959 24.3925 152.948 25.0517 153.607 26.0406L151.959 27.6888C150.641 26.0406 148.993 25.3814 146.685 25.3814C144.707 25.3814 142.73 26.0406 141.411 27.6888C139.763 29.0073 139.104 30.9851 139.104 33.2925C139.104 35.5999 139.763 37.5777 141.411 38.8962C143.059 40.2147 144.707 41.2036 146.685 41.2036C148.993 41.2036 150.641 40.5443 152.289 38.8962C153.278 37.9073 153.937 36.5888 153.937 34.9406H146.685V32.3036H156.245V33.6221ZM171.407 25.3814H162.507V31.6443H170.748V33.9517H162.507V40.2147H171.407V42.8517H159.87V23.074H171.407V25.3814ZM182.285 42.8517H179.648V25.3814H174.045V23.074H187.889V25.3814H182.285V42.8517ZM197.448 42.8517V23.074H200.085V42.8517H197.448ZM211.293 42.8517H208.656V25.3814H203.052V23.074H216.567V25.3814H210.963V42.8517H211.293ZM242.607 40.2147C240.63 42.1925 238.322 43.1814 235.356 43.1814C232.389 43.1814 230.082 42.1925 228.104 40.2147C226.126 38.2369 225.137 35.9295 225.137 32.9628C225.137 29.9962 226.126 27.6888 228.104 25.711C230.082 23.7332 232.389 22.7443 235.356 22.7443C238.322 22.7443 240.63 23.7332 242.607 25.711C244.585 27.6888 245.574 29.9962 245.574 32.9628C245.574 35.9295 244.585 38.2369 242.607 40.2147ZM230.082 38.5665C231.4 39.8851 233.378 40.874 235.356 40.874C237.333 40.874 239.311 40.2147 240.63 38.5665C241.948 37.248 242.937 35.2702 242.937 32.9628C242.937 30.6554 242.278 28.6777 240.63 27.3591C239.311 26.0406 237.333 25.0517 235.356 25.0517C233.378 25.0517 231.4 25.711 230.082 27.3591C228.763 28.6777 227.774 30.6554 227.774 32.9628C227.774 35.2702 228.433 37.248 230.082 38.5665ZM249.2 42.8517V23.074H252.167L261.726 38.5665V23.074H264.363V42.8517H261.726L251.507 26.6999V42.8517H249.2Z" fill="white" stroke="white" stroke-width="1.18519" stroke-miterlimit="10"/>
<path d="M224.478 71.8593C216.567 71.8593 210.304 77.7927 210.304 86.0334C210.304 93.9445 216.567 100.207 224.478 100.207C232.389 100.207 238.652 94.2742 238.652 86.0334C238.652 77.4631 232.389 71.8593 224.478 71.8593ZM224.478 94.2742C220.193 94.2742 216.567 90.6482 216.567 85.7038C216.567 80.7594 220.193 77.1334 224.478 77.1334C228.763 77.1334 232.389 80.4297 232.389 85.7038C232.389 90.6482 228.763 94.2742 224.478 94.2742ZM193.822 71.8593C185.911 71.8593 179.648 77.7927 179.648 86.0334C179.648 93.9445 185.911 100.207 193.822 100.207C201.733 100.207 207.996 94.2742 207.996 86.0334C207.996 77.4631 201.733 71.8593 193.822 71.8593ZM193.822 94.2742C189.537 94.2742 185.911 90.6482 185.911 85.7038C185.911 80.7594 189.537 77.1334 193.822 77.1334C198.107 77.1334 201.733 80.4297 201.733 85.7038C201.733 90.6482 198.107 94.2742 193.822 94.2742ZM157.233 76.1445V82.0779H171.407C171.078 85.3742 169.759 88.0112 168.111 89.6594C166.133 91.6371 162.837 93.9445 157.233 93.9445C148.333 93.9445 141.741 87.0223 141.741 78.1223C141.741 69.2223 148.663 62.3001 157.233 62.3001C161.848 62.3001 165.474 64.2779 168.111 66.5853L172.396 62.3001C168.77 59.0038 164.156 56.3668 157.563 56.3668C145.696 56.3668 135.478 66.2557 135.478 78.1223C135.478 89.989 145.696 99.8779 157.563 99.8779C164.156 99.8779 168.77 97.9001 172.726 93.6149C176.682 89.6593 178 84.0556 178 79.7705C178 78.4519 178 77.1334 177.67 76.1445H157.233ZM306.885 80.7594C305.567 77.4631 302.27 71.8593 295.019 71.8593C287.767 71.8593 281.833 77.4631 281.833 86.0334C281.833 93.9445 287.767 100.207 295.678 100.207C301.941 100.207 305.896 96.2519 307.215 93.9445L302.6 90.6482C300.952 92.9556 298.974 94.6038 295.678 94.6038C292.382 94.6038 290.404 93.2853 288.756 90.3186L307.545 82.4075L306.885 80.7594ZM287.767 85.3742C287.767 80.1001 292.052 77.1334 295.019 77.1334C297.326 77.1334 299.633 78.4519 300.293 80.1001L287.767 85.3742ZM272.274 98.889H278.537V57.6853H272.274V98.889ZM262.385 74.826C260.737 73.1779 258.1 71.5297 254.804 71.5297C247.882 71.5297 241.289 77.7927 241.289 85.7038C241.289 93.6149 247.552 99.5482 254.804 99.5482C258.1 99.5482 260.737 97.9001 262.056 96.2519H262.385V98.2297C262.385 103.504 259.419 106.47 254.804 106.47C251.178 106.47 248.541 103.833 247.882 101.526L242.607 103.833C244.256 107.459 248.211 112.074 255.133 112.074C262.385 112.074 268.319 107.789 268.319 97.5705V72.5186H262.385V74.826ZM255.133 94.2742C250.848 94.2742 247.222 90.6482 247.222 85.7038C247.222 80.7594 250.848 77.1334 255.133 77.1334C259.419 77.1334 262.715 80.7594 262.715 85.7038C262.715 90.6482 259.419 94.2742 255.133 94.2742ZM335.563 57.6853H320.73V98.889H326.993V83.3964H335.563C342.485 83.3964 349.078 78.4519 349.078 70.5408C349.078 62.6297 342.485 57.6853 335.563 57.6853ZM335.893 77.4631H326.993V63.289H335.893C340.507 63.289 343.145 67.2445 343.145 70.2112C342.815 73.8371 340.178 77.4631 335.893 77.4631ZM373.8 71.5297C369.185 71.5297 364.57 73.5075 362.922 77.7927L368.526 80.1001C369.845 77.7927 371.822 77.1334 374.13 77.1334C377.426 77.1334 380.393 79.1112 380.722 82.4075V82.7371C379.733 82.0779 377.096 81.089 374.459 81.089C368.526 81.089 362.593 84.3853 362.593 90.3186C362.593 95.9223 367.537 99.5482 372.811 99.5482C377.096 99.5482 379.074 97.5705 380.722 95.5927H381.052V98.889H386.985V83.0668C386.326 75.8149 380.722 71.5297 373.8 71.5297ZM373.141 94.2742C371.163 94.2742 368.196 93.2853 368.196 90.6482C368.196 87.3519 371.822 86.3631 374.789 86.3631C377.426 86.3631 378.745 87.0223 380.393 87.6816C379.733 91.6371 376.437 94.2742 373.141 94.2742ZM407.752 72.5186L400.83 90.3186H400.5L393.248 72.5186H386.656L397.533 97.5705L391.27 111.415H397.533L414.345 72.5186H407.752ZM352.374 98.889H358.637V57.6853H352.374V98.889Z" fill="white"/>
<path d="M34.2815 24.7221C33.2926 25.711 32.963 27.3591 32.963 29.3369V102.185C32.963 104.163 33.6222 105.811 34.6111 106.8L34.9407 107.13L75.8148 66.2554V65.5962L34.2815 24.7221Z" fill="url(#paint0_linear_206_2240)"/>
<path d="M89 80.0999L75.4852 66.5851V65.5962L89 52.0814L89.3297 52.411L105.482 61.6406C110.096 64.2777 110.096 68.5628 105.482 71.1999L89 80.0999Z" fill="url(#paint1_linear_206_2240)"/>
<path d="M89.3296 79.7702L75.4852 65.9258L34.2815 107.129C35.9296 108.778 38.2371 108.778 41.2037 107.459L89.3296 79.7702Z" fill="url(#paint2_linear_206_2240)"/>
<path d="M89.3296 52.0814L41.2037 24.7221C38.2371 23.074 35.9296 23.4036 34.2815 25.0518L75.4852 65.9258L89.3296 52.0814Z" fill="url(#paint3_linear_206_2240)"/>
<path opacity="0.2" d="M89 79.4406L41.2037 106.47C38.5667 108.118 36.2593 107.789 34.6111 106.47L34.2815 106.8L34.6111 107.13C36.2593 108.448 38.5667 108.778 41.2037 107.13L89 79.4406Z" fill="black"/>
<path opacity="0.12" d="M34.2815 106.47C33.2926 105.481 32.963 103.833 32.963 101.855V102.185C32.963 104.163 33.6222 105.811 34.6111 106.8V106.47H34.2815ZM105.481 70.211L89 79.4406L89.3296 79.7702L105.481 70.5406C107.789 69.2221 108.778 67.5739 108.778 65.9258C108.778 67.5739 107.459 68.8924 105.481 70.211Z" fill="black"/>
<path opacity="0.25" d="M41.2037 25.0517L105.481 61.6406C107.459 62.9591 108.778 64.2777 108.778 65.9258C108.778 64.2777 107.789 62.6295 105.481 61.311L41.2037 24.7221C36.5889 22.0851 32.963 24.0628 32.963 29.3369V29.6666C32.963 24.7221 36.5889 22.4147 41.2037 25.0517Z" fill="white"/>
<defs>
<linearGradient id="paint0_linear_206_2240" x1="71.8592" y1="28.7106" x2="16.5375" y2="84.0291" gradientUnits="userSpaceOnUse">
<stop stop-color="#00A0FF"/>
<stop offset="0.007" stop-color="#00A1FF"/>
<stop offset="0.26" stop-color="#00BEFF"/>
<stop offset="0.512" stop-color="#00D2FF"/>
<stop offset="0.76" stop-color="#00DFFF"/>
<stop offset="1" stop-color="#00E3FF"/>
</linearGradient>
<linearGradient id="paint1_linear_206_2240" x1="111.527" y1="65.9291" x2="31.7665" y2="65.9291" gradientUnits="userSpaceOnUse">
<stop stop-color="#FFE000"/>
<stop offset="0.409" stop-color="#FFBD00"/>
<stop offset="0.775" stop-color="#FFA500"/>
<stop offset="1" stop-color="#FF9C00"/>
</linearGradient>
<linearGradient id="paint2_linear_206_2240" x1="81.8372" y1="73.4941" x2="6.82006" y2="148.511" gradientUnits="userSpaceOnUse">
<stop stop-color="#FF3A44"/>
<stop offset="1" stop-color="#C31162"/>
</linearGradient>
<linearGradient id="paint3_linear_206_2240" x1="24.0531" y1="0.580053" x2="57.5533" y2="34.0803" gradientUnits="userSpaceOnUse">
<stop stop-color="#32A071"/>
<stop offset="0.069" stop-color="#2DA771"/>
<stop offset="0.476" stop-color="#15CF74"/>
<stop offset="0.801" stop-color="#06E775"/>
<stop offset="1" stop-color="#00F076"/>
</linearGradient>
</defs>
</svg>
