<svg width="361" height="57" viewBox="0 0 361 57" fill="none" xmlns="http://www.w3.org/2000/svg">
<path d="M50.0435 54.8476H6.80428C4.16188 54.8476 2 52.6857 2 50.0433V6.80428C2 4.16188 4.16188 2 6.80428 2H50.0435C52.6857 2 54.8478 4.16188 54.8478 6.80428V50.0433C54.8478 52.6857 52.6857 54.8476 50.0435 54.8476Z" stroke="#18181B" stroke-width="3" stroke-miterlimit="10" stroke-linecap="round"/>
<path d="M23.6195 24.8206V45.239" stroke="#18181B" stroke-width="3" stroke-miterlimit="10" stroke-linecap="round" stroke-linejoin="round"/>
<path d="M43.4376 20.0161V45.2391" stroke="#18181B" stroke-width="3" stroke-miterlimit="10" stroke-linecap="round" stroke-linejoin="round"/>
<path d="M33.2283 27.8234V45.2391" stroke="#18181B" stroke-width="3" stroke-miterlimit="10" stroke-linecap="round" stroke-linejoin="round"/>
<path d="M13.4104 31.4265V45.2391" stroke="#18181B" stroke-width="3" stroke-miterlimit="10" stroke-linecap="round" stroke-linejoin="round"/>
<path d="M13.4104 24.8206L23.6195 16.4129L33.2283 20.0161L43.4376 11.0081" stroke="#18181B" stroke-width="3" stroke-miterlimit="10" stroke-linecap="round" stroke-linejoin="round"/>
<path d="M76.7858 50.1581L76.7206 6.68848H105.396L105.461 13.7921L85.5188 13.7269L85.5839 25.4579L102.789 25.5231L102.854 32.6269H85.5188L85.5839 50.1581H76.7858ZM113.152 50.1581V17.6373H121.428L121.493 50.1581H113.152ZM112.956 12.4236V5.64575H121.624V12.4236H112.956ZM143.326 51.2008C139.937 51.2008 137.352 50.3644 135.571 48.6916C133.789 47.0189 132.899 44.5967 132.899 41.4251V23.8285H127.815V17.3114H132.899V8.25248H141.436V17.3114H149.061V23.8285H141.436V40.1216C141.436 41.4685 141.697 42.4678 142.218 43.1194C142.739 43.7713 143.652 44.097 144.955 44.097C145.651 44.097 146.378 43.9776 147.139 43.7387C147.899 43.4998 148.54 43.2064 149.061 42.8587V50.0277C148.192 50.4622 147.247 50.7663 146.226 50.9401C145.205 51.1138 144.238 51.2008 143.326 51.2008ZM157.664 50.1581V6.68848H162.747L178.845 31.3886L175.651 32.1054L192.661 6.68848H197.745V50.1581H193.052V11.3809H195.138L177.216 36.5371L160.662 11.9022L162.356 9.49076V50.1581H157.664ZM221.923 51.1356C218.838 51.1356 216.166 50.4948 213.907 49.2131C211.648 47.9314 209.91 46.0087 208.693 43.4454C207.477 40.882 206.869 37.6884 206.869 33.865C206.869 28.2602 208.139 24.0567 210.681 21.2544C213.223 18.4519 216.71 17.0506 221.141 17.0506C224.617 17.0506 227.409 17.8329 229.516 19.3969C231.623 20.9611 233.133 23.0683 234.045 25.7187C234.958 28.369 235.392 31.3668 235.349 34.7124H209.215L209.541 30.4111H232.286L230.461 31.0627C230.33 27.8041 229.516 25.3709 228.017 23.7633C226.518 22.156 224.226 21.3522 221.141 21.3522C219.012 21.3522 217.242 21.7431 215.83 22.5253C214.418 23.3073 213.364 24.6649 212.669 26.5984C211.974 28.532 211.626 31.2365 211.626 34.7124C211.626 38.6662 212.549 41.6748 214.396 43.7387C216.242 45.8024 218.838 46.8343 222.184 46.8343C223.792 46.8343 225.269 46.7147 226.616 46.4758C227.962 46.2369 229.201 45.9001 230.33 45.4657C231.46 45.0312 232.459 44.5533 233.328 44.0318V48.8546C231.764 49.5932 230.037 50.1581 228.147 50.5492C226.257 50.9401 224.183 51.1356 221.923 51.1356ZM254.379 50.6795C252.076 50.6795 250.143 49.9733 248.578 48.5613C247.014 47.1492 246.232 45.053 246.232 42.2723V21.9386H240.562V17.6373H246.232V8.44803H250.925V17.6373H259.332V21.9386H250.925V40.7732C250.925 42.5982 251.207 43.9669 251.772 44.8792C252.337 45.7916 253.488 46.2477 255.226 46.2477C256.008 46.2477 256.768 46.1717 257.507 46.0197C258.246 45.8676 258.854 45.683 259.332 45.4657V49.8973C258.724 50.1147 257.952 50.2992 257.018 50.4514C256.084 50.6034 255.204 50.6795 254.379 50.6795ZM267.804 50.1581V20.2443C268.326 20.0269 269.336 19.6576 270.835 19.1363C272.334 18.6149 274.137 18.137 276.244 17.7025C278.351 17.268 280.535 17.0506 282.794 17.0506C283.141 17.0506 283.489 17.0942 283.837 17.181C284.184 17.268 284.532 17.355 284.879 17.4418V21.6127C283.75 21.4825 282.653 21.4174 281.588 21.4174C280.524 21.4174 279.492 21.4715 278.492 21.5801C277.493 21.6889 276.494 21.83 275.495 22.0038C274.495 22.1775 273.496 22.3513 272.497 22.5253V50.1581H267.804ZM292.635 50.1581V17.6373H297.327V50.1581H292.635ZM292.374 11.837V6.68848H297.588V11.837H292.374ZM321.636 50.6795C319.898 50.6795 318.128 50.4514 316.325 49.9951C314.522 49.539 312.871 48.7134 311.372 47.5185C309.873 46.3238 308.667 44.6185 307.755 42.4026C306.842 40.1868 306.386 37.3409 306.386 33.865C306.386 30.3893 306.842 27.5542 307.755 25.3602C308.667 23.1661 309.873 21.4607 311.372 20.2443C312.871 19.0275 314.522 18.1912 316.325 17.7351C318.128 17.2788 319.898 17.0506 321.636 17.0506C323.287 17.0506 324.927 17.2028 326.557 17.5069C328.186 17.8111 329.761 18.2674 331.282 18.8756V23.3725C329.848 22.7642 328.371 22.3079 326.85 22.0038C325.329 21.6997 323.765 21.5475 322.158 21.5475C318.291 21.5475 315.478 22.5253 313.718 24.4804C311.958 26.4355 311.078 29.5637 311.078 33.865C311.078 38.2099 311.958 41.3491 313.718 43.2824C315.478 45.2159 318.291 46.1827 322.158 46.1827C323.765 46.1827 325.329 46.0305 326.85 45.7264C328.371 45.4223 329.848 44.966 331.282 44.3577V48.9198C329.761 49.4846 328.186 49.9191 326.557 50.2233C324.927 50.5274 323.287 50.6795 321.636 50.6795ZM349.269 51.1356C346.923 51.1356 344.957 50.8967 343.371 50.4188C341.785 49.9409 340.145 49.2673 338.451 48.3985V43.4454C339.797 44.184 340.992 44.814 342.035 45.3353C343.078 45.8568 344.142 46.2369 345.228 46.4758C346.315 46.7147 347.553 46.8343 348.943 46.8343C351.116 46.8343 352.886 46.3564 354.255 45.4005C355.623 44.4447 356.308 43.2064 356.308 41.6858C356.308 40.4691 355.971 39.535 355.297 38.8833C354.624 38.2317 353.766 37.6884 352.723 37.2539C351.68 36.8197 350.594 36.3634 349.465 35.8855C348.204 35.5378 346.934 35.1577 345.652 34.745C344.37 34.3321 343.197 33.789 342.133 33.1156C341.068 32.4422 340.21 31.5732 339.558 30.5086C338.907 29.4443 338.581 28.0649 338.581 26.3703C338.581 24.7193 338.918 23.3073 339.591 22.1342C340.264 20.9611 341.144 19.9943 342.23 19.2341C343.317 18.4737 344.533 17.9196 345.88 17.5721C347.227 17.2246 348.574 17.0506 349.921 17.0506C351.876 17.0506 353.549 17.3114 354.939 17.8329C356.329 18.3541 357.763 18.9408 359.24 19.5924V24.2848C357.589 23.4158 356.112 22.7098 354.809 22.1668C353.505 21.6237 351.963 21.3522 350.181 21.3522C348.4 21.3522 346.803 21.7105 345.391 22.4275C343.979 23.1443 343.273 24.2414 343.273 25.7187C343.273 26.9352 343.632 27.9019 344.349 28.6187C345.065 29.3357 346.01 29.9004 347.184 30.3133C348.357 30.726 349.617 31.1279 350.964 31.519C352.05 31.8665 353.179 32.2466 354.352 32.6595C355.526 33.0722 356.612 33.6153 357.611 34.2887C358.61 34.9621 359.425 35.8419 360.055 36.9282C360.685 38.0143 361 39.4048 361 41.0992C361 43.402 360.413 45.3027 359.24 46.8017C358.067 48.3007 356.579 49.3977 354.776 50.0929C352.973 50.7881 351.137 51.1356 349.269 51.1356Z" fill="#18181B"/>
</svg>
